<?xml version="1.0" encoding="UTF-8" standalone="no"?>
<svg
   width="1220.0563"
   height="1220.0563"
   viewBox="0 0 1220.0563 1220.0563"
   version="1.1"
   xml:space="preserve"
   style="clip-rule:evenodd;fill-rule:evenodd;stroke-linejoin:round;stroke-miterlimit:1.41421"
   id="svg78"
   sodipodi:docname="Logo.svg"
   inkscape:version="1.2.2 (b0a8486541, 2022-12-01)"
   xmlns:inkscape="http://www.inkscape.org/namespaces/inkscape"
   xmlns:sodipodi="http://sodipodi.sourceforge.net/DTD/sodipodi-0.dtd"
   xmlns="http://www.w3.org/2000/svg"
   xmlns:svg="http://www.w3.org/2000/svg"
   xmlns:serif="http://www.serif.com/"><sodipodi:namedview
   id="namedview80"
   pagecolor="#ffffff"
   bordercolor="#666666"
   borderopacity="1.0"
   inkscape:showpageshadow="2"
   inkscape:pageopacity="0.0"
   inkscape:pagecheckerboard="0"
   inkscape:deskcolor="#d1d1d1"
   showgrid="false"
   inkscape:zoom="0.26104025"
   inkscape:cx="-473.10712"
   inkscape:cy="917.48303"
   inkscape:window-width="2560"
   inkscape:window-height="1367"
   inkscape:window-x="0"
   inkscape:window-y="0"
   inkscape:window-maximized="1"
   inkscape:current-layer="svg78" />
    <g
   id="Layer-1"
   serif:id="Layer 1"
   transform="translate(58.27683,348.70873)">
        <g
   transform="translate(597.344,637.02)"
   id="g4">
            <path
   d="m 0,-279.559 c -121.238,0 -231.39,14.576 -312.939,38.329 V -38.329 C -231.39,-14.575 -121.238,0 0,0 138.76,0 262.987,-19.092 346.431,-49.186 V -230.37 C 262.987,-260.465 138.76,-279.559 0,-279.559"
   style="fill:#a52b00;fill-rule:nonzero"
   id="path2" />
        </g>
        <g
   transform="translate(1068.75,575.642)"
   id="g8">
            <path
   d="m 0,-53.32 -14.211,-29.441 c 0.073,-1.118 0.131,-2.237 0.131,-3.36 0,-33.375 -34.706,-64.135 -93.097,-88.762 V 2.643 c 27.245,-11.492 49.348,-24.317 65.156,-38.125 -4.652,18.707 -20.564,56.553 -33.25,83.168 -20.85,38.066 -28.4,71.203 -27.432,72.844 0.617,1.033 7.73,-9.94 18.219,-27.721 C -60.074,58.028 -13.82,-8.373 -4.575,-25.287 5.897,-44.461 0,-53.32 0,-53.32"
   style="fill:#a52b00;fill-rule:nonzero"
   id="path6" />
        </g>
        <g
   transform="translate(149.064,591.421)"
   id="g12">
            <path
   d="m 0,-99.954 c 0,6.428 1.293,12.76 3.788,18.969 l -8.511,15.15 c 0,0 -6.818,8.846 5.188,27.508 10.59,16.455 63.635,80.867 91.632,114.598 12.026,17.293 20.179,27.945 20.893,26.916 1.124,-1.633 -7.476,-34.1 -31.359,-71.141 -11.144,-19.895 -24.454,-46.252 -32.442,-65.721 22.303,14.116 51.483,26.92 86.152,37.94 V -204.17 C 51.797,-177.622 0,-140.737 0,-99.954"
   style="fill:#a52b00;fill-rule:nonzero"
   id="path10" />
        </g>
        <g
   transform="matrix(-65.8097,-752.207,-752.207,65.8097,621.707,796.312)"
   id="g16">
            <path
   d="M 0.991,-0.034 0.933,0.008 c 0,0.006 0,0.012 0,0.018 L 0.99,0.069 C 0.996,0.073 0.999,0.08 0.998,0.087 0.997,0.094 0.992,0.1 0.986,0.103 L 0.92,0.133 C 0.919,0.139 0.918,0.145 0.916,0.15 L 0.964,0.203 C 0.968,0.208 0.97,0.216 0.968,0.222 0.965,0.229 0.96,0.234 0.953,0.236 L 0.882,0.254 C 0.88,0.259 0.877,0.264 0.875,0.27 L 0.91,0.33 c 0.004,0.006 0.004,0.014 0,0.02 C 0.907,0.356 0.9,0.36 0.893,0.361 L 0.82,0.365 C 0.817,0.369 0.813,0.374 0.81,0.379 L 0.832,0.445 C 0.835,0.452 0.833,0.459 0.828,0.465 0.824,0.47 0.816,0.473 0.809,0.472 L 0.737,0.462 C 0.733,0.466 0.729,0.47 0.724,0.474 l 0.009,0.07 C 0.734,0.551 0.731,0.558 0.725,0.562 0.719,0.566 0.711,0.568 0.704,0.565 L 0.636,0.542 C 0.631,0.546 0.626,0.549 0.621,0.552 L 0.615,0.621 c 0,0.008 -0.005,0.014 -0.011,0.017 -0.007,0.003 -0.015,0.003 -0.021,0 L 0.521,0.602 C 0.52,0.603 0.519,0.603 0.518,0.603 L 0.406,0.729 c 0,0 -0.012,0.018 -0.047,-0.004 C 0.329,0.705 0.206,0.599 0.141,0.543 0.109,0.52 0.089,0.504 0.09,0.502 0.093,0.499 0.149,0.509 0.217,0.554 0.278,0.588 0.371,0.631 0.38,0.619 c 0,0 0.016,-0.015 0.026,-0.044 0,0 0,0 0,0 10e-4,0.001 10e-4,0.001 0,0 0,0 -0.315,-0.551 -0.101,-1.106 C 0.311,-0.593 0.275,-0.627 0.275,-0.627 0.266,-0.639 0.178,-0.598 0.12,-0.566 0.055,-0.523 0.002,-0.513 0,-0.516 -0.001,-0.518 0.018,-0.533 0.049,-0.555 0.11,-0.608 0.227,-0.707 0.256,-0.726 0.289,-0.748 0.301,-0.73 0.301,-0.73 l 0.101,0.115 c 0.004,0.001 0.008,0.002 0.013,0.002 L 0.47,-0.658 c 0.005,-0.005 0.013,-0.006 0.02,-0.004 0.007,0.002 0.012,0.007 0.014,0.014 l 0.018,0.068 c 0.005,0.002 0.011,0.004 0.016,0.006 l 0.064,-0.034 c 0.006,-0.004 0.014,-0.004 0.021,0 0.006,0.003 0.01,0.009 0.01,0.016 l 0.004,0.07 c 0.005,0.003 0.01,0.007 0.015,0.01 l 0.069,-0.022 c 0.007,-0.002 0.015,-0.001 0.02,0.003 0.006,0.005 0.009,0.012 0.008,0.019 l -0.011,0.069 c 0.004,0.004 0.008,0.008 0.013,0.012 l 0.072,-0.008 c 0.007,-0.001 0.014,0.002 0.019,0.007 0.005,0.006 0.006,0.013 0.003,0.02 l -0.024,0.065 c 0.003,0.005 0.007,0.01 0.01,0.015 l 0.072,0.005 c 0.008,0 0.014,0.005 0.017,0.011 0.004,0.006 0.004,0.014 0,0.02 l -0.037,0.06 c 0.002,0.005 0.004,0.01 0.006,0.016 l 0.07,0.018 c 0.007,0.002 0.013,0.007 0.015,0.014 0.002,0.007 0,0.014 -0.005,0.02 L 0.92,-0.116 c 0.001,0.005 0.003,0.011 0.004,0.017 l 0.064,0.031 C 0.995,-0.065 0.999,-0.059 1,-0.052 1.001,-0.045 0.997,-0.038 0.991,-0.034 Z M 0.406,0.575 c 0,0 0,0 0,0 0,0 0,0 0,0 z"
   style="fill:url(#_Linear1);fill-rule:nonzero"
   id="path14" />
        </g>
        <g
   transform="translate(450.328,483.629)"
   id="g20">
            <path
   d="m 0,167.33 c -1.664,-1.42 -2.536,-2.262 -2.536,-2.262 L 140.006,153.391 C 23.733,0 -69.418,122.193 -79.333,135.855 v 31.475 z"
   style="fill-rule:nonzero"
   id="path18" />
        </g>
        <g
   transform="translate(747.12,477.333)"
   id="g24">
            <path
   d="m 0,171.974 c 1.663,-1.42 2.536,-2.264 2.536,-2.264 L -134.448,159.687 C -18.12,0 69.421,126.835 79.335,140.497 v 31.477 z"
   style="fill-rule:nonzero"
   id="path22" />
        </g>
        <g
   transform="matrix(-1.53e-5,-267.211,-267.211,1.53e-5,809.465,764.23)"
   id="g28">
            <path
   d="m 1,-0.586 c 0,0 -0.232,0.058 -0.476,0.421 L 0.5,-0.064 c 0,0 0.6,0.329 -0.076,0.795 0,0 0.084,-0.145 -0.019,-0.534 0,0 -0.274,0.179 -0.265,0.539 0,0 -0.415,-0.345 0.184,-0.871 0,0 0.215,-0.556 0.676,-0.601 z"
   style="fill:url(#_Linear2);fill-rule:nonzero"
   id="path26" />
        </g>
        <g
   transform="translate(722.26185,506.19754)"
   id="g32">
            <path
   d="m 0,-92.063 c 0,0 43.486,-47.615 86.974,0 0,0 34.17,63.492 0,95.234 0,0 -55.912,44.444 -86.974,0 0,0 -37.275,-34.921 0,-95.234"
   style="fill-rule:nonzero"
   id="path30" />
        </g>
        <g
   transform="translate(772.60785,431.79654)"
   id="g36">
            <path
   d="m 0,0.002 c 0,18.541 -10.93,33.572 -24.408,33.572 -13.477,0 -24.406,-15.031 -24.406,-33.572 0,-18.541 10.929,-33.574 24.406,-33.574 C -10.93,-33.572 0,-18.539 0,0.002"
   style="fill:#ffffff;fill-rule:nonzero"
   id="path34" />
        </g>
        <g
   transform="translate(427.06058,500.2752)"
   id="g40">
            <path
   d="m 0,-98.439 c 0,0 74.596,-33.028 94.956,40.691 0,0 21.327,85.926 -61.259,90.776 0,0 -105.31,-20.283 -33.697,-131.467"
   style="fill-rule:nonzero"
   id="path38" />
        </g>
        <g
   transform="translate(520.766,436.428)"
   id="g44">
            <path
   d="m -56.239419,-2.7088036 c 0,19.1189996 -11.27,34.6269996 -25.173,34.6269996 -13.898,0 -25.171001,-15.508 -25.171001,-34.6269996 0,-19.1240004 11.273001,-34.6270004 25.171001,-34.6270004 13.903,0 25.173,15.503 25.173,34.6270004"
   style="fill:#ffffff;fill-rule:nonzero"
   id="path42" />
        </g>
        <g
   transform="matrix(-1.53e-5,-239.021,-239.021,1.53e-5,402.161,775.388)"
   id="g48">
            <path
   d="m 0.367,0.129 c -0.731,-0.57 -0.144,-0.84 -0.144,-0.84 0.036,0.32 0.249,0.547 0.249,0.547 0.049,-0.384 0.053,-0.606 0.053,-0.606 0.678,0.514 0.064,0.931 0.064,0.931 0.038,0.104 0.183,0.211 0.317,0.29 L 1,0.77 C 0.376,0.403 0.367,0.129 0.367,0.129 Z"
   style="fill:url(#_Linear3);fill-rule:nonzero"
   id="path46" />
        </g>
    </g>
    <defs
   id="defs76">
        <linearGradient
   id="_Linear1"
   x1="0"
   y1="0"
   x2="1"
   y2="0"
   gradientUnits="userSpaceOnUse"
   gradientTransform="matrix(1,0,0,-1,0,-6.50515e-4)"><stop
     offset="0"
     style="stop-color:rgb(247,76,0);stop-opacity:1"
     id="stop51" /><stop
     offset="0.33"
     style="stop-color:rgb(247,76,0);stop-opacity:1"
     id="stop53" /><stop
     offset="1"
     style="stop-color:rgb(244,150,0);stop-opacity:1"
     id="stop55" /></linearGradient>
        <linearGradient
   id="_Linear2"
   x1="0"
   y1="0"
   x2="1"
   y2="0"
   gradientUnits="userSpaceOnUse"
   gradientTransform="matrix(1,0,0,-1,0,1.23438e-6)"><stop
     offset="0"
     style="stop-color:rgb(204,58,0);stop-opacity:1"
     id="stop58" /><stop
     offset="0.15"
     style="stop-color:rgb(204,58,0);stop-opacity:1"
     id="stop60" /><stop
     offset="0.74"
     style="stop-color:rgb(247,76,0);stop-opacity:1"
     id="stop62" /><stop
     offset="1"
     style="stop-color:rgb(247,76,0);stop-opacity:1"
     id="stop64" /></linearGradient>
        <linearGradient
   id="_Linear3"
   x1="0"
   y1="0"
   x2="1"
   y2="0"
   gradientUnits="userSpaceOnUse"
   gradientTransform="scale(1,-1)"><stop
     offset="0"
     style="stop-color:rgb(204,58,0);stop-opacity:1"
     id="stop67" /><stop
     offset="0.15"
     style="stop-color:rgb(204,58,0);stop-opacity:1"
     id="stop69" /><stop
     offset="0.74"
     style="stop-color:rgb(247,76,0);stop-opacity:1"
     id="stop71" /><stop
     offset="1"
     style="stop-color:rgb(247,76,0);stop-opacity:1"
     id="stop73" /></linearGradient>
    </defs>
<path
   style="fill:#000000;stroke-width:1.34908"
   d="m 319.28339,1075.4621 c -28.29576,-7.98 -53.24107,-26.7413 -63.9776,-48.1175 l -2.90227,-5.7782 4.68009,-11.7598 c 8.49827,-21.3543 12.73613,-43.3292 15.77251,-81.7866 2.05708,-26.0536 0.81633,-124.94443 -2.04129,-162.68974 -6.26311,-82.72915 -16.16469,-172.47573 -25.22863,-228.66921 -5.09291,-31.57442 -5.05406,-53.1095 0.11737,-65.05066 1.67691,-3.87212 3.89291,-7.74075 4.92469,-8.59696 1.47738,-1.22616 1.87576,-6.83528 1.87576,-26.41377 V 411.7426 l -6.51093,-6.51089 c -11.49215,-11.4921 -14.67422,-24.1902 -8.24208,-32.89009 2.40083,-3.24726 12.80049,-38.56107 11.64338,-39.53723 -0.14476,-0.12209 -18.77921,-0.8972 -41.41004,-1.7225 -22.63083,-0.8253 -47.82491,-1.80358 -55.98685,-2.17395 -8.16194,-0.37037 -33.96311,-1.28141 -57.335944,-2.02454 -23.37283,-0.74314 -45.83502,-1.64933 -49.91599,-2.01377 -4.08097,-0.36445 -15.76738,-0.72754 -25.96981,-0.80686 -10.2024202,-0.0793 -18.54986024,-0.55032 -18.54986024,-1.04662 0,-0.49631 39.91593024,-14.10159 88.70207024,-30.23395 C 137.7141,276.64983 259.76761,236.19604 360.15811,202.88486 l 182.52808,-60.56577 16.46135,-0.79024 c 32.13079,-1.54246 51.41752,-2.30419 158.78938,-6.2714 59.73056,-2.20695 148.66874,-5.51589 197.64038,-7.35322 48.9716,-1.83731 100.2704,-3.6835 113.9973,-4.10265 13.7268,-0.41913 26.7602,-1.04814 28.9631,-1.39777 9.8677,-1.56627 10.9945,-2.0461 -125.4223,53.40708 -17.8079,7.23885 -52.10834,21.18 -76.22314,30.98034 -37.10122,15.07801 -105.5498,42.97655 -121.2272,49.41022 -2.73459,1.12221 -4.23828,2.53137 -3.79186,3.55341 30.26919,69.30498 45.98369,113.30501 58.19084,162.93259 8.09449,32.9079 10.60702,51.69719 10.73046,80.24658 0.15406,35.59949 0.6114,34.20824 -14.47186,44.01435 -16.48914,10.72008 -59.54492,31.92115 -80.50681,39.64236 -87.86064,32.36294 -176.06031,37.35124 -262.41687,14.84152 -21.14805,-5.51247 -47.78296,-14.45891 -66.10496,-22.20414 -15.78128,-6.67115 -49.42803,-23.93384 -64.49564,-33.08984 -5.79282,-3.52008 -10.76162,-6.17095 -11.04169,-5.89083 -0.2802,0.28012 0.67643,7.45958 2.12588,15.95435 15.10553,88.53467 27.14837,257.37328 31.56364,442.5194 0.39811,16.6949 1.0682,41.4337 1.48884,54.9751 l 0.76493,24.6207 -4.48637,-0.096 c -2.4676,-0.053 -8.7361,-1.2943 -13.93007,-2.7591 z M 286.64548,471.90517 c -1.07454,-7.66658 -1.92649,-25.13925 -1.97357,-40.47241 -0.11062,-36.02445 2.75968,-57.70068 11.06921,-83.59424 2.9217,-9.10428 3.47645,-12.34994 2.24433,-13.13287 -0.89997,-0.57197 -8.13927,-1.04924 -16.08711,-1.0606 l -14.45055,-0.0206 -1.50922,5.7336 c -0.82995,3.15348 -2.98996,10.93549 -4.79976,17.29334 l -3.29054,11.55976 7.46217,8.00191 c 14.67126,15.73248 17.51512,27.58608 7.96956,33.21811 l -4.58714,2.70649 v 21.49701 21.497 l 4.63099,4.631 c 3.98221,3.98221 10.44269,15.59704 13.4274,24.14012 1.78079,5.09737 1.74665,1.21976 -0.10523,-11.99755 z"
   id="path407" /><path
   style="fill:#000000;stroke-width:0.699447"
   d="m 477.04203,922.0871 c -35.69061,-3.3412 -67.76278,-15.9794 -86.24406,-33.98504 -4.59626,-4.47795 -5.71854,-6.1178 -9.46057,-13.82373 -4.79576,-9.87578 -8.04615,-19.21759 -11.59782,-33.33257 -4.84037,-19.23626 -10.32669,-51.87428 -11.58479,-68.91679 -0.37813,-5.12184 -1.04477,-10.57145 -1.48143,-12.11022 -2.04938,-7.22137 -6.93516,-13.39512 -12.99635,-16.42218 l -3.21613,-1.6062 0.33147,-22.98936 c 0.18227,-12.64412 0.46086,-23.10925 0.61907,-23.25592 0.57306,-0.53116 120.84877,-6.73819 130.39672,-6.72929 18.29544,0.0168 43.45923,2.11645 63.28797,5.28019 22.58963,3.60432 40.56081,8.30774 57.19842,14.97011 30.51587,12.21984 65.92076,18.19598 95.85144,16.17905 25.69719,-1.73161 47.71158,-6.6118 71.1229,-15.76679 17.98824,-7.03427 33.69293,-11.28027 54.20714,-14.65586 22.48653,-3.70014 37.65619,-5.14905 60.15243,-5.74539 13.45443,-0.35674 24.56557,0.063 76.58945,2.89221 33.46855,1.82017 60.98121,3.42932 61.13951,3.57584 0.1582,0.1466 0.437,10.63293 0.6197,23.30299 l 0.3321,23.03643 -2.5506,1.06568 c -4.0218,1.68042 -9.81676,7.63019 -11.84996,12.16652 -1.982,4.42197 -3.2612,11.04441 -3.2729,16.94228 -0.01,5.04526 -3.5615,29.46653 -6.6887,45.99165 -4.8659,25.71321 -9.6693,42.03383 -16.5193,56.12762 -3.6792,7.5699 -4.9252,9.40931 -9.2857,13.70824 -13.58686,13.39493 -38.53243,25.50543 -62.98378,30.57723 -15.35222,3.1844 -20.12813,3.6266 -39.16903,3.6266 -23.82799,0 -39.89869,-2.0277 -63.90041,-8.0629 -17.8052,-4.477 -31.08182,-12.2133 -45.58024,-26.55969 -15.35783,-15.19673 -26.36118,-31.86134 -36.30101,-54.97814 -6.17102,-14.35181 -9.11227,-23.23548 -12.17311,-36.7674 -2.74575,-12.13883 -3.84969,-14.42925 -9.49025,-19.69028 -7.6255,-7.11253 -16.57316,-8.93235 -24.79475,-5.04294 -4.42094,2.09142 -11.4291,8.44659 -13.29152,12.05294 -0.63622,1.23195 -2.2604,7.05484 -3.60928,12.93977 -2.82158,12.30958 -4.10919,16.44625 -8.88201,28.53583 -15.12715,38.31704 -36.76404,65.85062 -64.00003,81.44201 -7.38602,4.2281 -13.58891,6.4251 -26.43349,9.3623 -21.79967,4.985 -40.29934,7.1723 -59.25827,7.0064 -7.0316,-0.062 -13.8864,-0.2151 -15.23283,-0.3412 z m 31.61205,-21.9329 c 22.49779,-1.6223 37.23926,-6.51085 54.49113,-18.07047 12.77183,-8.5578 23.19204,-19.36895 30.21575,-31.34956 8.73469,-14.899 16.81513,-39.15972 20.81261,-62.48782 2.3097,-13.47875 1.05987,-24.14638 -3.80086,-32.4405 -3.8932,-6.64334 -12.03386,-11.44812 -31.91087,-18.83451 -38.32229,-14.24079 -61.52644,-18.63206 -93.72588,-17.73711 -29.15114,0.81015 -47.83519,4.15436 -62.22849,11.13807 -4.95411,2.40377 -7.09897,4.03006 -12.62942,9.57625 -7.8073,7.82947 -10.27683,12.06126 -12.87822,22.06855 -10.5078,40.42171 -6.24088,81.71595 10.84584,104.96501 8.48099,11.53962 18.91983,18.28773 38.14531,24.65879 14.23892,4.71861 28.72462,7.5375 43.64109,8.4925 4.42401,0.2833 8.3584,0.5593 8.74308,0.6133 0.38472,0.054 5.01022,-0.2125 10.27893,-0.5925 z m 365.3241,-1.122 c 23.07755,-2.80937 47.66655,-11.15976 59.46404,-20.19391 6.916,-5.29607 14.6842,-15.17792 18.30844,-23.29003 11.41138,-25.54214 12.86958,-59.48203 4.01832,-93.53116 -2.60138,-10.00729 -5.07091,-14.23908 -12.87822,-22.06855 -5.53044,-5.54619 -7.6753,-7.17248 -12.62949,-9.57625 -14.32761,-6.95189 -33.03424,-10.31657 -61.87867,-11.12988 -30.21087,-0.85194 -52.94184,3.05511 -86.03198,14.7872 -20.65669,7.32385 -30.12112,11.70679 -35.49623,16.4382 -9.24025,8.13358 -11.56039,23.20616 -6.94587,45.12273 4.0168,19.07789 11.23746,40.15992 18.01071,52.58553 9.23626,16.94418 26.10538,32.5338 45.4148,41.97017 19.08042,9.32455 42.66892,12.29155 70.64415,8.88595 z"
   id="path421" /></svg>
